PathFileType	4	(X/Y/Z)	C:/Users/opensim2020/Desktop/walking_exp_matlab/subject03_walking10_straight_04.trc																																																																																																																																					
DataRate	CameraRate	NumFrames	NumMarkers	Units	OrigDataRate	OrigDataStartFrame	OrigNumFrames																																																																																																																																	
100	100	7	45	mm	100	4022	317																																																																																																																																	
Frame#	Time	LFHD			RFHD			LBHD			RBHD			C7			T10			CLAV			STRN			RBAK			LSHO			LUPA			LELB			LFRM			LWRA			LWRB			LFIN			RSHO			RUPA			RELB			RFRM			RWRA			RWRB			RFIN			LASI			RASI			LPSI			RPSI			LTHI			LKNE			LTIB			LANK			LHEE			LTOE			RTHI			RKNE			RTIB			RANK			RHEE			RTOE			*39			*40			*41			*42			*43			*44		
		X1	Y1	Z1	X2	Y2	Z2	X3	Y3	Z3	X4	Y4	Z4	X5	Y5	Z5	X6	Y6	Z6	X7	Y7	Z7	X8	Y8	Z8	X9	Y9	Z9	X10	Y10	Z10	X11	Y11	Z11	X12	Y12	Z12	X13	Y13	Z13	X14	Y14	Z14	X15	Y15	Z15	X16	Y16	Z16	X17	Y17	Z17	X18	Y18	Z18	X19	Y19	Z19	X20	Y20	Z20	X21	Y21	Z21	X22	Y22	Z22	X23	Y23	Z23	X24	Y24	Z24	X25	Y25	Z25	X26	Y26	Z26	X27	Y27	Z27	X28	Y28	Z28	X29	Y29	Z29	X30	Y30	Z30	X31	Y31	Z31	X32	Y32	Z32	X33	Y33	Z33	X34	Y34	Z34	X35	Y35	Z35	X36	Y36	Z36	X37	Y37	Z37	X38	Y38	Z38	X39	Y39	Z39	X40	Y40	Z40	X41	Y41	Z41	X42	Y42	Z42	X43	Y43	Z43	X44	Y44	Z44	X45	Y45	Z45
																																																																																																																																								
199	1.98	397.65024	1609.71252	924.0274	383.63773	1611.25146	1056.11572	268.92801	1570.36633	914.35071	259.64743	1571.29126	1044.89111	227.03838	1409.27979	965.75275	195.96902	1094.34619	971.88745	346.58096	1330.82007	975.5528	390.70026	1167.10144	973.31201	166.12685	1233.10291	1058.94446	314.60461	1366.58167	818.12262	349.76685	1178.3844	741.51501	391.61041	1063.86121	728.78162	464.98044	957.8197	739.48969	525.58124	859.71796	780.05975	510.31934	853.72113	726.62012	562.02484	789.7533	742.00232	290.98148	1355.19397	1132.73596	284.2124	1133.56506	1207.59229	300.58029	1022.26611	1223.81409	321.50311	887.06488	1228.37207	357.23291	792.68103	1196.40259	323.67798	787.50848	1238.52686	350.76529	718.29095	1233.26404	361.63345	933.2674	856.90302	358.48227	931.79364	1096.13379	199.99419	958.96295	907.91235	198.80922	958.63031	1056.63354	280.15833	634.24408	828.53845	260.14853	458.30902	870.12952	185.06764	275.76465	871.59454	143.47668	68.90719	917.47998	101.32038	35.46625	955.20929	294.16949	29.48483	936.34338	365.74197	640.01782	1145.51025	445.10556	477.55621	1110.6532	429.53198	289.70358	1116.9519	436.55338	72.69387	1076.33875	396.54962	38.736	1021.14294	575.07288	40.01747	1067.15088	NaN	NaN	NaN	NaN	NaN	NaN	NaN	NaN	NaN	NaN	NaN	NaN	NaN	NaN	NaN	NaN	NaN	NaN
200	1.99	404.55002	1609.08423	924.68793	390.51114	1610.56128	1056.82092	275.90839	1569.66333	915.06805	266.58246	1570.37927	1045.48694	234.14912	1408.52673	966.25983	202.73668	1093.68713	972.26404	353.67615	1330.00952	976.00238	397.49405	1166.21851	973.5976	173.13686	1232.3219	1059.28223	321.67746	1365.91577	818.64899	356.99255	1177.89001	742.05933	399.14862	1063.33862	729.24152	473.15186	957.99829	740.48657	534.60028	860.64154	781.54346	519.44641	854.32208	728.14642	571.89026	791.06598	743.7735	297.98059	1354.4491	1133.13831	291.02365	1132.56506	1207.74036	307.17227	1021.26575	1223.94934	328.21283	886.07367	1228.42297	364.36804	791.76807	1196.53516	330.42453	786.52527	1238.32825	357.66977	717.28436	1233.0697	368.12619	932.4054	857.08264	365.28156	930.93835	1096.3175	206.71925	958.15344	908.17767	205.62	957.84106	1056.9032	285.09631	633.67987	828.66931	263.93533	457.82721	870.11359	187.22984	275.85901	871.58868	143.6597	69.42488	917.37836	101.0679	36.28886	955.36523	294.21399	29.44287	936.302	371.57001	638.96362	1145.84583	451.66678	476.89017	1110.57874	441.60931	289.21725	1116.71558	456.04822	72.39182	1076.04602	416.88211	38.4848	1020.6709	595.38965	40.88124	1067.06946	NaN	NaN	NaN	NaN	NaN	NaN	NaN	NaN	NaN	NaN	NaN	NaN	NaN	NaN	NaN	NaN	NaN	NaN
201	2	411.5166	1608.42041	925.38763	397.41684	1609.81592	1057.46484	282.65948	1568.89136	915.68842	273.54935	1569.4646	1045.99524	241.38524	1407.79504	966.8056	209.57751	1093.05493	972.60803	360.79187	1329.21008	976.4812	404.42365	1165.31104	973.93909	180.17815	1231.65125	1059.73987	328.84418	1365.24817	819.216	364.12488	1177.28735	742.53479	406.53595	1062.81946	729.84717	481.12265	958.0838	741.48651	543.198	861.34869	783.0788	528.11475	854.63037	729.68365	581.19855	792.07129	745.59418	305.02298	1353.53125	1133.71741	297.95026	1131.57739	1207.96204	313.90579	1020.2475	1224.13123	335.00128	885.0686	1228.44543	371.55392	791.00604	1196.59741	337.31894	785.4646	1238.12292	364.61462	716.26392	1232.80518	374.67599	931.57971	857.3988	372.2457	930.10974	1096.45984	213.30106	957.52655	908.56146	212.42032	957.08026	1057.18933	290.11874	633.22424	828.74646	267.86984	457.37308	870.07129	189.52991	275.98544	871.61414	144.11682	69.91589	917.25635	101.62033	36.6955	955.05182	294.2793	29.39597	936.29425	377.68097	638.04175	1146.59717	458.1922	476.21524	1110.52307	452.92172	288.80276	1116.56201	474.13797	72.36231	1075.99658	436.24951	38.17604	1020.1601	614.56714	42.4352	1067.03552	NaN	NaN	NaN	NaN	NaN	NaN	NaN	NaN	NaN	NaN	NaN	NaN	NaN	NaN	NaN	NaN	NaN	NaN
202	2.01	418.58752	1607.78955	926.12457	404.3811	1609.15491	1058.2135	290.06171	1567.86658	916.16083	280.60284	1568.60059	1046.62817	248.68066	1407.03137	967.4032	216.39519	1092.41016	972.93011	367.92068	1328.38354	977.00323	411.41248	1164.44263	974.24823	187.37222	1230.97449	1060.29675	335.98096	1364.63794	819.80145	371.06589	1176.61731	743.09174	413.70364	1062.2583	730.54956	488.83838	958.01093	742.57605	551.48364	861.90332	784.6308	536.4389	854.79755	731.25085	590.02722	792.77563	747.4256	312.45358	1352.58752	1134.25562	305.05298	1130.63733	1208.1897	320.76114	1019.24811	1224.29675	341.95468	884.09491	1228.46936	378.75314	790.07355	1196.56311	344.33447	784.42505	1237.88208	371.66891	715.21936	1232.40149	381.45361	930.70074	857.55402	379.30032	929.3429	1096.64624	220.14378	956.55939	908.81104	219.2995	956.36499	1057.50513	295.33044	632.69928	828.85864	271.9632	457.01566	870.03455	191.8051	276.15143	871.56171	144.51451	70.494	917.12982	101.3129	38.12644	954.89819	294.38409	29.36547	936.23608	384.07748	637.16882	1147.48254	464.65948	475.42545	1110.48901	463.39502	288.30719	1116.43469	491.01245	72.33629	1076.16736	454.46811	37.89579	1019.7182	632.66364	44.59227	1066.92419	NaN	NaN	NaN	NaN	NaN	NaN	NaN	NaN	NaN	NaN	NaN	NaN	NaN	NaN	NaN	NaN	NaN	NaN
203	2.02	425.61295	1607.21277	926.89368	411.37784	1608.51453	1058.95361	297.21353	1567.0769	916.86127	287.68393	1567.73804	1047.35083	255.9975	1406.37207	968.07953	223.35445	1091.78015	973.40125	375.19604	1327.6272	977.54462	418.46475	1163.58618	974.54449	194.6433	1230.32214	1060.93408	343.15747	1364.02405	820.41345	378.0134	1175.97827	743.68658	420.71375	1061.62891	731.29742	496.26312	957.73163	743.75055	559.37494	862.17084	786.1908	544.3291	854.7334	732.87518	598.32275	793.18909	749.30536	320.06482	1351.82373	1134.72949	312.27225	1129.66113	1208.49304	327.82684	1018.27429	1224.50977	349.06079	883.08429	1228.46057	386.06015	789.16962	1196.48291	351.44321	783.38556	1237.60486	378.82001	714.18817	1231.94019	388.26154	929.90887	857.79834	386.52197	928.65533	1096.8772	226.85783	955.87561	909.3089	226.29546	955.61633	1057.96887	300.74118	632.10352	828.93066	275.92126	456.64301	870.03284	194.1394	276.43973	871.52557	144.96785	71.10612	916.91919	101.59366	39.06135	954.60681	294.45956	29.32424	936.19128	390.64264	636.35474	1148.00012	471.04614	474.51892	1110.49207	473.21854	287.77579	1116.34094	506.83936	72.52921	1075.98608	471.44427	37.62626	1019.51111	649.78229	47.36658	1066.573	339.46381	1673.07312	970.10162	NaN	NaN	NaN	NaN	NaN	NaN	NaN	NaN	NaN	NaN	NaN	NaN	NaN	NaN	NaN
204	2.03	432.69913	1606.71191	927.64441	418.44632	1607.89429	1059.69531	304.35574	1566.26294	917.6377	294.81473	1566.84619	1048.0719	263.32779	1405.81213	968.99414	230.30824	1091.17847	973.93518	382.55661	1326.88135	978.11322	425.5668	1162.75049	974.85468	202.01886	1229.67712	1061.64917	350.3504	1363.45276	821.06616	384.91513	1175.34094	744.38995	427.52628	1060.94275	732.2215	503.42123	957.38751	744.98499	566.99536	862.26056	787.80212	551.83105	854.45581	734.5542	606.09033	793.29907	751.22626	327.66486	1350.76013	1135.36548	319.66177	1128.70776	1208.84619	335.01999	1017.27509	1224.72095	356.27466	882.08722	1228.39832	393.49551	788.30487	1196.33435	358.78116	782.32672	1237.30798	386.10773	713.14282	1231.45264	394.82828	928.99719	857.92242	393.86401	927.94519	1097.17896	233.866	954.83051	909.80743	233.39742	954.89734	1058.453	305.95258	631.85962	829.32129	279.93344	456.47165	870.08081	196.50035	276.85098	871.50983	145.11406	72.0249	916.55011	101.61399	40.63578	954.79773	294.57153	29.25486	936.16144	397.51971	635.62347	1148.29919	477.30093	473.53586	1110.61804	482.55606	287.16031	1116.22876	521.64203	72.68683	1076.07617	487.25034	37.33514	1019.52814	665.45422	50.04804	1066.39001	NaN	NaN	NaN	NaN	NaN	NaN	NaN	NaN	NaN	NaN	NaN	NaN	NaN	NaN	NaN	NaN	NaN	NaN
205	2.04	439.81183	1606.22363	928.49872	425.59882	1607.31506	1060.55579	311.66852	1565.51868	918.4361	302.08261	1565.96191	1048.87976	270.71863	1405.23022	969.86761	237.45615	1090.61511	974.45313	389.93173	1326.18188	978.70117	432.73422	1161.99731	975.17755	209.43842	1229.09656	1062.45032	357.59061	1362.90491	821.73108	391.62277	1174.60474	745.21332	434.17358	1060.17456	733.21246	510.26413	956.83179	746.21747	574.16492	862.10699	789.43024	558.97571	853.97961	736.25037	613.37561	793.07721	753.12329	335.36087	1349.90479	1136.05859	327.1893	1127.80444	1209.26123	342.37531	1016.28674	1224.91846	363.6304	881.10474	1228.39551	400.89139	787.49207	1196.11755	366.17337	781.21326	1237.01929	393.52557	712.12152	1230.93372	401.36505	928.15942	858.08875	401.3248	927.33014	1097.47644	240.78893	954.17804	910.44537	240.66788	954.16687	1059.04407	311.42224	631.53339	829.64502	284.00751	456.19928	869.98981	198.79199	277.41754	871.38635	145.55385	72.9642	916.26306	102.25905	41.6517	954.27423	294.70804	29.23068	936.05237	404.51495	634.94019	1148.56116	483.31299	472.4704	1110.58618	491.56796	286.57568	1116.20593	535.16724	72.89609	1076.09766	501.66785	37.04021	1019.578	679.84967	52.58917	1066.10461	NaN	NaN	NaN	NaN	NaN	NaN	NaN	NaN	NaN	NaN	NaN	NaN	NaN	NaN	NaN	NaN	NaN	NaN
